<svg width="395.99999999999994" height="123.96645637489999" viewBox="0 0 230 72.00071961168435" class="css-1j8o68f"><defs id="SvgjsDefs1587"></defs><g id="SvgjsG1588" featurekey="v37d4h-0" transform="matrix(0.9000089951460544,0,0,0.9000089951460544,-15.00044975730272,-9.000089951460543)" fill="#11999e"><path xmlns="http://www.w3.org/2000/svg" d="M16.667,43.33C16.667,69.104,37.559,90,63.333,90v-6.667c-22.093,0-40-17.91-40-40.003H16.667z"></path><path xmlns="http://www.w3.org/2000/svg" d="M63.333,16.667c-14.729,0-26.666,11.94-26.666,26.664C36.667,58.06,48.604,70,63.333,70v6.667  C44.922,76.667,30,61.741,30,43.33C30,24.922,44.922,10,63.333,10V16.667z"></path><path xmlns="http://www.w3.org/2000/svg" d="M63.333,43.333v20c-11.048,0-20-8.955-20-20.003c0-11.045,8.952-19.997,20-19.997c11.049,0,20,8.952,20,19.997  L63.333,43.333z"></path></g><g id="SvgjsG1589" featurekey="UxBHKT-0" transform="matrix(2.7665067617653367,0,0,2.7665067617653367,77.62080431020327,1.4994466859835835)" fill="#40514e"><path d="M9.72 18.9 q-0.38 0.52 -1.31 0.93 t-2.03 0.41 q-1.7 0 -2.95 -0.76 t-1.91 -2.07 t-0.66 -2.91 t0.66 -2.91 t1.91 -2.07 t2.95 -0.76 q1.14 0 2.01 0.39 t1.33 0.99 l0 -5.26 l2.96 0 l0 15.12 l-2.96 0 l0 -1.1 z M9.02 12.25 q-0.82 -0.87 -2.2 -0.87 q-1.4 0 -2.21 0.87 t-0.81 2.25 q0 1.34 0.83 2.22 t2.19 0.88 q1.4 0 2.21 -0.83 t0.81 -2.27 q0 -1.38 -0.82 -2.25 z M32.05 10.04 q1.13 1.24 1.13 3.46 l0 6.5 l-3.02 0 l0 -6.5 q0 -1.18 -0.59 -1.7 t-1.55 -0.52 q-0.8 0 -1.44 0.6 t-0.66 2 l0 6.12 l-3.02 0 l0 -6.5 q0 -1.18 -0.59 -1.7 t-1.53 -0.52 q-0.86 0 -1.49 0.64 t-0.63 2.26 l-0.02 5.82 l-2.98 0 l0 -11 l2.98 0 l0 1 q0.58 -0.52 1.4 -0.86 t1.5 -0.34 q2.32 0 3.54 1.5 q0.62 -0.7 1.54 -1.1 t2 -0.4 q2.3 0 3.43 1.24 z M39.98 16.08 q0 0.7 0.24 1.17 t1.12 0.47 q0.4 0 0.76 -0.04 l0 2.52 q-0.72 0.08 -1.34 0.08 q-1.28 0 -2.07 -0.21 t-1.23 -0.81 t-0.44 -1.72 l0 -6.1 l-1.34 0 l0 -2.62 l1.34 0 l0 -2.94 l2.96 0 l0 2.94 l2.2 0 l0 2.62 l-2.2 0 l0 4.64 z M47.49999999999999 4.880000000000001 l0 8.8 l3.74 -4.62 l3.66 0 l-4.42 5.12 l4.6 5.82 l-3.62 0 l-2.88 -3.6 l-1.08 1.24 l0 2.36 l-3 0 l0 -15.12 l3 0 z"></path></g></svg>